<svg width="1200" height="760" viewBox="0 0 1200 760" fill="none" xmlns="http://www.w3.org/2000/svg">
  <defs>
    <linearGradient id="bg" x1="0" y1="0" x2="1200" y2="760" gradientUnits="userSpaceOnUse">
      <stop stop-color="#0B1D2B" />
      <stop offset="1" stop-color="#132739" />
    </linearGradient>
    <linearGradient id="accent" x1="62" y1="90" x2="588" y2="90" gradientUnits="userSpaceOnUse">
      <stop stop-color="#39D0FF" />
      <stop offset="1" stop-color="#FFB86C" />
    </linearGradient>
  </defs>

  <rect width="1200" height="760" rx="24" fill="url(#bg)"/>
  <rect x="62" y="64" width="1076" height="68" rx="14" fill="#0F2B40" stroke="#274A62"/>
  <rect x="82" y="82" width="260" height="30" rx="10" fill="url(#accent)" fill-opacity="0.16"/>
  <text x="98" y="102" fill="#DDF3FF" font-family="IBM Plex Mono, monospace" font-size="16">sample_api_collection</text>
  <rect x="1034" y="82" width="84" height="30" rx="10" fill="#1B425D"/>
  <text x="1062" y="102" fill="#9FD8FF" font-family="IBM Plex Mono, monospace" font-size="15">Dark</text>

  <rect x="62" y="156" width="352" height="544" rx="16" fill="#102A3E" stroke="#29485F"/>
  <text x="90" y="200" fill="#DDF3FF" font-family="Space Grotesk, sans-serif" font-size="26" font-weight="700">Endpoint Groups</text>

  <rect x="88" y="224" width="300" height="64" rx="12" fill="#173A53"/>
  <text x="108" y="264" fill="#9FD8FF" font-family="IBM Plex Mono, monospace" font-size="20">Resource Group A (4)</text>

  <rect x="88" y="302" width="300" height="64" rx="12" fill="#12344D"/>
  <text x="108" y="342" fill="#B5D7EE" font-family="IBM Plex Mono, monospace" font-size="20">Resource Group B (4)</text>

  <rect x="88" y="380" width="300" height="64" rx="12" fill="#12344D"/>
  <text x="108" y="420" fill="#B5D7EE" font-family="IBM Plex Mono, monospace" font-size="20">Resource Group C (5)</text>

  <rect x="88" y="458" width="300" height="64" rx="12" fill="#12344D"/>
  <text x="108" y="498" fill="#B5D7EE" font-family="IBM Plex Mono, monospace" font-size="20">General (4)</text>

  <rect x="438" y="156" width="700" height="544" rx="16" fill="#0E2435" stroke="#29485F"/>
  <rect x="468" y="188" width="640" height="66" rx="12" fill="#132F46"/>
  <rect x="486" y="208" width="56" height="28" rx="8" fill="#1E6952"/>
  <text x="500" y="228" fill="#A8FFDE" font-family="IBM Plex Mono, monospace" font-size="16">GET</text>
  <text x="562" y="230" fill="#E7F5FF" font-family="IBM Plex Mono, monospace" font-size="29" font-weight="600">/resource/{id}</text>

  <text x="468" y="288" fill="#9DC5E1" font-family="Space Grotesk, sans-serif" font-size="33" font-weight="700">Request Body</text>
  <rect x="468" y="308" width="640" height="350" rx="14" fill="#081623" stroke="#224357"/>
  <text x="500" y="360" fill="#8CB8D8" font-family="IBM Plex Mono, monospace" font-size="22">{</text>
  <text x="538" y="408" fill="#D7ECFF" font-family="IBM Plex Mono, monospace" font-size="22">"fieldOne": "value",</text>
  <text x="538" y="448" fill="#D7ECFF" font-family="IBM Plex Mono, monospace" font-size="22">"fieldTwo": "sample",</text>
  <text x="538" y="488" fill="#D7ECFF" font-family="IBM Plex Mono, monospace" font-size="22">"enabled": true</text>
  <text x="500" y="536" fill="#8CB8D8" font-family="IBM Plex Mono, monospace" font-size="22">}</text>

  <rect x="946" y="606" width="162" height="52" rx="12" fill="#1E7FD1"/>
  <text x="974" y="640" fill="#082033" font-family="Space Grotesk, sans-serif" font-size="22" font-weight="700">Run Mock</text>
</svg>
